<?xml version="1.0" standalone="no"?>
<!DOCTYPE svg PUBLIC "-//W3C//DTD SVG 20010904//EN"
 "http://www.w3.org/TR/2001/REC-SVG-20010904/DTD/svg10.dtd">
<svg version="1.0" xmlns="http://www.w3.org/2000/svg"
 width="663.000000pt" height="376.000000pt" viewBox="0 0 663.000000 376.000000"
 preserveAspectRatio="xMidYMid meet">
<metadata>
Created by potrace 1.16, written by Peter Selinger 2001-2019
</metadata>
<g transform="translate(0.000000,376.000000) scale(0.100000,-0.100000)"
fill="#000000" stroke="none">
<path d="M4720 2503 c0 -8 -28 -13 -89 -15 l-89 -3 -4 -550 -3 -550 40 -6 c22
-4 67 -9 100 -11 l60 -3 3 558 c1 351 -1 565 -8 575 -5 9 -10 12 -10 5z"/>
<path d="M4884 2488 c-2 -4 2 -22 10 -40 16 -37 35 -85 129 -328 81 -207 81
-208 69 -234 -15 -34 -56 -127 -147 -336 l-84 -195 62 -7 c34 -3 82 -8 106
-10 l43 -3 65 153 c36 84 69 150 72 145 4 -4 17 -33 28 -63 56 -146 91 -237
96 -252 4 -10 16 -19 29 -22 63 -12 192 -25 199 -21 4 3 -9 47 -30 98 -39 94
-112 280 -175 445 l-36 92 51 118 c28 64 73 167 99 227 26 61 59 136 74 169
15 32 25 61 22 64 -11 10 -211 1 -218 -11 -4 -7 -35 -78 -70 -159 l-62 -146
-19 51 c-42 116 -57 155 -80 210 l-24 58 -102 2 c-57 1 -105 -1 -107 -5z"/>
<path d="M1069 2483 c-3 -30 1 -1207 4 -1210 2 -2 45 2 96 9 l91 12 1 316 c0
228 3 308 11 290 5 -14 10 -38 10 -54 -1 -15 2 -25 5 -22 5 5 29 -54 72 -184
59 -175 105 -297 115 -307 9 -10 32 -10 111 0 l100 12 3 573 2 572 -100 0
-100 0 -1 -292 c-1 -161 -1 -309 0 -328 1 -32 0 -31 -20 20 -11 30 -29 80 -39
110 -10 30 -50 143 -90 250 -40 107 -74 205 -77 218 -5 21 -10 22 -99 22 -52
0 -94 -3 -95 -7z"/>
<path d="M1860 1931 c0 -343 4 -562 10 -566 5 -3 80 1 167 10 87 8 203 18 258
22 l100 8 3 99 3 99 -123 -7 c-68 -4 -145 -9 -171 -13 l-48 -6 3 134 3 134
125 0 125 0 0 100 0 100 -128 3 -128 3 3 117 3 117 168 3 167 2 0 100 0 100
-270 0 -270 0 0 -559z"/>
<path d="M2508 2405 c-1 -47 -2 -93 -2 -102 -1 -16 9 -18 100 -14 l101 3 1
-433 1 -434 101 -3 100 -3 0 436 0 435 100 0 100 0 0 100 0 100 -300 0 -300 0
-2 -85z"/>
<path d="M3214 2479 c-3 -6 -3 -243 0 -527 l7 -517 94 -3 95 -3 0 216 0 216
130 -3 c81 -2 131 1 133 7 1 6 1 52 -1 103 l-3 92 -130 0 -130 0 3 113 3 112
173 3 172 2 0 100 0 100 -269 0 c-183 0 -272 -3 -277 -11z"/>
<path d="M3867 2483 c-4 -3 -7 -244 -7 -534 0 -493 1 -527 18 -531 9 -3 78 -6
152 -7 75 -1 185 -6 245 -10 61 -5 113 -6 118 -4 4 2 7 46 7 97 0 108 3 106
-110 106 -36 0 -102 3 -147 7 l-83 6 0 438 0 439 -93 0 c-52 0 -97 -3 -100 -7z"/>
</g>
</svg>
